<mxfile host="app.diagrams.net" agent="Mozilla/5.0 (X11; Ubuntu; Linux x86_64; rv:131.0) Gecko/20100101 Firefox/131.0" version="24.7.17">
  <diagram name="Page-1" id="mZzKJ1FoavuPKzW_0s7d">
    <mxGraphModel dx="733" dy="364" grid="1" gridSize="10" guides="1" tooltips="1" connect="1" arrows="1" fold="1" page="1" pageScale="1" pageWidth="850" pageHeight="1100" math="0" shadow="0">
      <root>
        <mxCell id="0" />
        <mxCell id="1" parent="0" />
        <mxCell id="AIDaJW9LgL59vlDi-E3T-1" value="View" style="swimlane;whiteSpace=wrap;html=1;" parent="1" vertex="1">
          <mxGeometry x="100" y="40" width="200" height="200" as="geometry" />
        </mxCell>
        <mxCell id="AIDaJW9LgL59vlDi-E3T-3" value="PyQT5" style="rounded=1;whiteSpace=wrap;html=1;fillColor=#6a00ff;fontColor=#ffffff;strokeColor=#3700CC;" parent="AIDaJW9LgL59vlDi-E3T-1" vertex="1">
          <mxGeometry x="45" y="120" width="120" height="60" as="geometry" />
        </mxCell>
        <mxCell id="AIDaJW9LgL59vlDi-E3T-4" value="Voice-Output-Player" style="rounded=1;whiteSpace=wrap;html=1;fillColor=#6a00ff;strokeColor=#3700CC;fontColor=#ffffff;" parent="AIDaJW9LgL59vlDi-E3T-1" vertex="1">
          <mxGeometry x="45" y="40" width="120" height="60" as="geometry" />
        </mxCell>
        <mxCell id="AIDaJW9LgL59vlDi-E3T-2" value="Model" style="swimlane;whiteSpace=wrap;html=1;startSize=23;" parent="1" vertex="1">
          <mxGeometry x="700" y="20" width="450" height="280" as="geometry" />
        </mxCell>
        <mxCell id="AIDaJW9LgL59vlDi-E3T-6" value="UseCase I" style="rounded=1;whiteSpace=wrap;html=1;fillColor=#f0a30a;strokeColor=#BD7000;fontColor=#000000;" parent="AIDaJW9LgL59vlDi-E3T-2" vertex="1">
          <mxGeometry x="150" y="60" width="120" height="60" as="geometry" />
        </mxCell>
        <mxCell id="AIDaJW9LgL59vlDi-E3T-8" value="&lt;font style=&quot;font-size: 24px;&quot;&gt;...&lt;/font&gt;" style="text;html=1;align=center;verticalAlign=middle;whiteSpace=wrap;rounded=0;" parent="AIDaJW9LgL59vlDi-E3T-2" vertex="1">
          <mxGeometry x="180" y="125" width="60" height="30" as="geometry" />
        </mxCell>
        <mxCell id="AIDaJW9LgL59vlDi-E3T-9" value="UseCase IV" style="rounded=1;whiteSpace=wrap;html=1;fillColor=#f0a30a;strokeColor=#BD7000;fontColor=#000000;" parent="AIDaJW9LgL59vlDi-E3T-2" vertex="1">
          <mxGeometry x="150" y="170" width="120" height="60" as="geometry" />
        </mxCell>
        <mxCell id="AIDaJW9LgL59vlDi-E3T-5" value="Public APIs&lt;br&gt;(GoogleMaps, GoogleCalendar, ...)" style="rounded=1;whiteSpace=wrap;html=1;fillColor=#dae8fc;strokeColor=#6c8ebf;" parent="1" vertex="1">
          <mxGeometry x="1220" y="130" width="120" height="60" as="geometry" />
        </mxCell>
        <mxCell id="AIDaJW9LgL59vlDi-E3T-10" style="edgeStyle=orthogonalEdgeStyle;rounded=0;orthogonalLoop=1;jettySize=auto;html=1;exitX=1;exitY=0.5;exitDx=0;exitDy=0;entryX=0;entryY=0.5;entryDx=0;entryDy=0;" parent="1" source="AIDaJW9LgL59vlDi-E3T-6" target="AIDaJW9LgL59vlDi-E3T-5" edge="1">
          <mxGeometry relative="1" as="geometry" />
        </mxCell>
        <mxCell id="AIDaJW9LgL59vlDi-E3T-11" style="edgeStyle=orthogonalEdgeStyle;rounded=0;orthogonalLoop=1;jettySize=auto;html=1;exitX=1;exitY=0.5;exitDx=0;exitDy=0;entryX=0;entryY=0.5;entryDx=0;entryDy=0;" parent="1" source="AIDaJW9LgL59vlDi-E3T-9" target="AIDaJW9LgL59vlDi-E3T-5" edge="1">
          <mxGeometry relative="1" as="geometry" />
        </mxCell>
        <mxCell id="AIDaJW9LgL59vlDi-E3T-26" value="Presenter" style="swimlane;whiteSpace=wrap;html=1;" parent="1" vertex="1">
          <mxGeometry x="350" y="20" width="290" height="340" as="geometry" />
        </mxCell>
        <mxCell id="AIDaJW9LgL59vlDi-E3T-36" style="edgeStyle=orthogonalEdgeStyle;rounded=0;orthogonalLoop=1;jettySize=auto;html=1;exitX=0.25;exitY=0;exitDx=0;exitDy=0;entryX=0.25;entryY=1;entryDx=0;entryDy=0;" parent="AIDaJW9LgL59vlDi-E3T-26" source="AIDaJW9LgL59vlDi-E3T-20" target="AIDaJW9LgL59vlDi-E3T-27" edge="1">
          <mxGeometry relative="1" as="geometry" />
        </mxCell>
        <mxCell id="AIDaJW9LgL59vlDi-E3T-20" value="Config Dateien" style="rounded=1;whiteSpace=wrap;html=1;fillColor=#d80073;strokeColor=#A50040;fontColor=#ffffff;" parent="AIDaJW9LgL59vlDi-E3T-26" vertex="1">
          <mxGeometry x="80" y="240" width="120" height="60" as="geometry" />
        </mxCell>
        <mxCell id="WgUExMa6hBDIJFevQRkU-15" style="edgeStyle=orthogonalEdgeStyle;rounded=0;orthogonalLoop=1;jettySize=auto;html=1;exitX=0.75;exitY=1;exitDx=0;exitDy=0;entryX=0.75;entryY=0;entryDx=0;entryDy=0;" edge="1" parent="AIDaJW9LgL59vlDi-E3T-26" source="AIDaJW9LgL59vlDi-E3T-27" target="AIDaJW9LgL59vlDi-E3T-20">
          <mxGeometry relative="1" as="geometry" />
        </mxCell>
        <mxCell id="AIDaJW9LgL59vlDi-E3T-27" value="Config-Manager" style="rounded=1;whiteSpace=wrap;html=1;fillColor=#d80073;fontColor=#ffffff;strokeColor=#A50040;" parent="AIDaJW9LgL59vlDi-E3T-26" vertex="1">
          <mxGeometry x="80" y="140" width="120" height="60" as="geometry" />
        </mxCell>
        <mxCell id="WgUExMa6hBDIJFevQRkU-2" value="Voice-Output-Generator" style="rounded=1;whiteSpace=wrap;html=1;fillColor=#d80073;fontColor=#ffffff;strokeColor=#A50040;" vertex="1" parent="AIDaJW9LgL59vlDi-E3T-26">
          <mxGeometry x="80" y="60" width="120" height="60" as="geometry" />
        </mxCell>
        <mxCell id="AIDaJW9LgL59vlDi-E3T-29" style="edgeStyle=orthogonalEdgeStyle;rounded=0;orthogonalLoop=1;jettySize=auto;html=1;exitX=1;exitY=0.5;exitDx=0;exitDy=0;entryX=0;entryY=0.5;entryDx=0;entryDy=0;" parent="1" source="AIDaJW9LgL59vlDi-E3T-3" target="AIDaJW9LgL59vlDi-E3T-27" edge="1">
          <mxGeometry relative="1" as="geometry" />
        </mxCell>
        <mxCell id="WgUExMa6hBDIJFevQRkU-6" style="edgeStyle=orthogonalEdgeStyle;rounded=0;orthogonalLoop=1;jettySize=auto;html=1;exitX=0;exitY=0.5;exitDx=0;exitDy=0;entryX=1;entryY=0.5;entryDx=0;entryDy=0;" edge="1" parent="1" source="WgUExMa6hBDIJFevQRkU-2" target="AIDaJW9LgL59vlDi-E3T-4">
          <mxGeometry relative="1" as="geometry" />
        </mxCell>
        <mxCell id="WgUExMa6hBDIJFevQRkU-11" style="edgeStyle=orthogonalEdgeStyle;rounded=0;orthogonalLoop=1;jettySize=auto;html=1;exitX=0;exitY=0.25;exitDx=0;exitDy=0;entryX=1;entryY=0.25;entryDx=0;entryDy=0;" edge="1" parent="1" source="AIDaJW9LgL59vlDi-E3T-6" target="WgUExMa6hBDIJFevQRkU-2">
          <mxGeometry relative="1" as="geometry" />
        </mxCell>
        <mxCell id="WgUExMa6hBDIJFevQRkU-12" style="edgeStyle=orthogonalEdgeStyle;rounded=0;orthogonalLoop=1;jettySize=auto;html=1;exitX=0;exitY=0.25;exitDx=0;exitDy=0;entryX=1;entryY=0.75;entryDx=0;entryDy=0;" edge="1" parent="1" source="AIDaJW9LgL59vlDi-E3T-9" target="WgUExMa6hBDIJFevQRkU-2">
          <mxGeometry relative="1" as="geometry">
            <Array as="points">
              <mxPoint x="780" y="205" />
              <mxPoint x="780" y="140" />
              <mxPoint x="570" y="140" />
              <mxPoint x="570" y="125" />
            </Array>
          </mxGeometry>
        </mxCell>
        <mxCell id="WgUExMa6hBDIJFevQRkU-13" style="edgeStyle=orthogonalEdgeStyle;rounded=0;orthogonalLoop=1;jettySize=auto;html=1;exitX=1;exitY=0.25;exitDx=0;exitDy=0;entryX=0;entryY=0.75;entryDx=0;entryDy=0;" edge="1" parent="1" source="AIDaJW9LgL59vlDi-E3T-27" target="AIDaJW9LgL59vlDi-E3T-6">
          <mxGeometry relative="1" as="geometry">
            <Array as="points">
              <mxPoint x="740" y="175" />
              <mxPoint x="740" y="125" />
            </Array>
          </mxGeometry>
        </mxCell>
        <mxCell id="WgUExMa6hBDIJFevQRkU-14" style="edgeStyle=orthogonalEdgeStyle;rounded=0;orthogonalLoop=1;jettySize=auto;html=1;exitX=1;exitY=0.75;exitDx=0;exitDy=0;entryX=0;entryY=0.75;entryDx=0;entryDy=0;" edge="1" parent="1" source="AIDaJW9LgL59vlDi-E3T-27" target="AIDaJW9LgL59vlDi-E3T-9">
          <mxGeometry relative="1" as="geometry">
            <Array as="points">
              <mxPoint x="740" y="205" />
              <mxPoint x="740" y="235" />
            </Array>
          </mxGeometry>
        </mxCell>
      </root>
    </mxGraphModel>
  </diagram>
</mxfile>
